<svg width="164" height="177" viewBox="0 0 164 177" fill="none" xmlns="http://www.w3.org/2000/svg">
<path d="M129.258 9.16605L129.539 14.621C129.777 19.2383 133.936 22.6498 138.511 21.9803L139.522 21.8323C144.671 21.0787 148.888 25.8809 147.475 30.8901V30.8901C146.208 35.3827 149.496 39.8717 154.161 40.0199L158.761 40.166" stroke="#FFFFFC" stroke-opacity="0.5"/>
<path d="M100.985 9.1662L100.985 22.7591C100.984 31.0852 107.626 37.8914 115.949 38.0948L116.996 38.1204C125.515 38.3286 131.989 45.8512 130.925 54.3059V54.3059C129.878 62.6251 136.136 70.0744 144.511 70.479L158.76 71.1672" stroke="#FFFFFC" stroke-opacity="0.5"/>
<path d="M66.4845 9.16586L66.4849 30.2282C66.4852 43.2066 77.0064 53.7275 89.9848 53.7275V53.7275C102.963 53.7275 113.484 64.248 113.485 77.2262L113.485 78.095C113.486 91.4608 124.252 102.332 137.617 102.461L158.759 102.666" stroke="#FFFFFC" stroke-opacity="0.5"/>
<path d="M29.4843 9.16604L29.484 36.5942C29.4838 54.979 43.6972 70.2355 62.036 71.535V71.535C79.7013 72.7869 93.6533 87.027 94.5437 104.714L94.6711 107.245C95.686 127.404 112.327 143.228 132.512 143.228L158.758 143.228" stroke="#FFFFFC" stroke-opacity="0.5"/>
</svg>
