<svg width="177" height="195" viewBox="0 0 177 195" fill="none" xmlns="http://www.w3.org/2000/svg">
<path d="M91.5389 154.212C92.7215 157.695 91.1109 171.279 91.5389 175.469C91.5933 175.992 91.6329 176.602 91.6651 177.273C91.6651 177.363 91.6651 177.456 91.6775 177.548C91.8828 182.277 91.722 189.645 92.8304 190.564C93.6691 191.261 97.2368 191.592 99.9237 191.646C100.302 191.646 100.666 191.658 100.997 191.658C101.645 191.677 102.294 191.64 102.932 191.547C104.006 191.28 99.5996 188.331 99.2779 187.35C99.1468 186.939 99.8297 183.729 100.738 179.549L100.842 179.072C102.138 173.131 103.835 165.449 104.33 161.092C104.869 156.326 107.299 148.01 108.922 142.078C109.184 141.124 109.417 140.228 109.627 139.424C110.179 137.256 110.493 135.722 110.347 135.278C110.013 134.275 108.002 130.96 105.399 128.322C103.823 126.739 102.029 125.406 100.255 124.981C98.8821 124.652 97.1428 124.224 95.3614 123.786L95.2427 123.757C90.9253 122.69 86.4224 121.557 86.4224 121.557C86.462 121.968 90.3662 150.753 91.5389 154.212Z" fill="#BD65B4"/>
<path d="M108.41 129.381C108.41 129.381 102.472 164.394 101.46 169.307C100.448 174.219 99.7062 180.651 99.7062 180.651" stroke="#1B232A" stroke-miterlimit="10"/>
<path d="M120.234 157.878C120.556 160.469 119.158 171.277 117.975 178.78C117.958 178.889 117.941 178.998 117.926 179.105C117.894 179.31 117.867 179.504 117.837 179.703C116.847 186.787 117.342 192.552 117.654 192.98C117.901 193.334 122.402 194.023 125.489 194.292H125.546L125.762 194.31H125.799C126.481 194.366 127.08 194.399 127.531 194.399C130.005 194.399 131.185 193.953 130.326 193.06C129.468 192.168 126.788 191.094 126.999 189.933C127.075 189.521 128.053 186.026 129.319 181.465C129.374 181.274 129.426 181.079 129.483 180.883C131.766 172.658 134.876 161.364 135.443 158.047C136.343 152.777 136.774 132.5 130.433 124.193L108.908 127.107L102.416 127.985V128.003C102.938 128.809 119.915 155.322 120.234 157.878Z" fill="#BD65B4"/>
<path d="M123.958 72.0964C123.951 75.8414 125.199 79.5139 127.563 82.7025H127.585C128.29 82.7025 128.99 82.6778 129.681 82.6243C133.179 82.365 136.565 81.4626 139.593 79.9824C142.62 78.5023 145.214 76.4813 147.187 74.0657C149.16 71.6502 150.462 68.9004 150.999 66.0154C151.536 63.1304 151.295 60.1822 150.292 57.3841C150.181 57.0675 150.045 56.7549 149.926 56.4465C149.258 54.8758 148.351 53.3826 147.227 52.003L147.101 51.8508C140.856 52.117 134.973 54.3662 130.666 58.1338C126.359 61.9014 123.958 66.8997 123.958 72.0964Z" fill="#BD65B4"/>
<path d="M124.533 126.344C124.533 126.344 141.057 145.467 126.24 184.58" stroke="#1B232A" stroke-miterlimit="10"/>
<path d="M103.895 63.0163C103.895 63.6989 103.937 64.3713 104.016 65.0355C104.076 65.5125 104.158 65.9841 104.264 66.4502C105.238 71.0003 108.107 75.1207 112.368 78.0903C116.629 81.0599 122.011 82.6897 127.572 82.6944C125.361 79.6977 124.125 76.2747 123.987 72.7613C123.848 69.2479 124.811 65.7649 126.781 62.6542C128.751 59.5435 131.66 56.912 135.224 55.018C138.787 53.124 142.881 52.0326 147.105 51.851C146.7 51.3595 146.264 50.8845 145.807 50.4281C143.265 47.8884 139.995 45.9209 136.299 44.7069C132.602 43.4929 128.598 43.0712 124.654 43.4808C120.71 43.8904 116.953 45.1181 113.73 47.0508C110.506 48.9835 107.92 51.5591 106.208 54.5405C106.038 54.8366 105.877 55.1389 105.726 55.4432C104.517 57.8416 103.895 60.416 103.895 63.0163Z" fill="url(#paint0_linear_1_10761)"/>
<path d="M140.165 67.2151C140.165 67.2151 140.907 74.1816 139.992 74.7841C139.077 75.3865 138.495 74.3111 138.639 72.5716L140.165 67.2151Z" fill="#D27358"/>
<path d="M86.0889 120.866C86.17 121.103 86.2759 121.333 86.4056 121.555C87.1107 122.762 89.2063 125.05 95.728 126.739C98.6151 127.456 101.574 127.959 104.568 128.24C104.843 128.268 105.115 128.295 105.387 128.318C115.531 129.255 123.448 127.985 127.961 126.716C130.479 126.009 131.937 125.299 132.135 124.976C132.686 124.078 131.66 121.002 131.615 120.864C131.615 120.915 131.42 121.604 121.607 122.867H121.58C120.929 122.951 120.239 123.035 119.504 123.126L119.314 123.146C119.037 123.179 118.755 123.206 118.468 123.227H118.438C111.374 123.772 101.945 121.629 95.0947 119.667C93.0758 119.089 91.282 118.528 89.8396 118.055C88.8277 117.726 87.989 117.438 87.3655 117.22C86.6035 116.953 86.1606 116.789 86.1284 116.774C86.1284 116.774 85.8019 117.979 86.1037 118.985C86.4056 119.99 85.787 120.002 86.0889 120.866Z" fill="url(#paint1_linear_1_10761)"/>
<path d="M86.2706 117.827C86.7184 118.738 89.2395 120.295 95.1997 121.94C98.4411 122.815 101.739 123.537 105.079 124.103C109.966 124.971 114.989 125.187 119.958 124.744C125.51 124.232 129.333 122.982 130.441 122.316C131.49 121.685 131.678 121.187 131.614 120.864C131.587 120.703 131.495 120.553 131.354 120.441H131.332C131.104 120.504 128.954 121.029 116.254 121.861C108.882 122.345 100.863 120.422 95.071 118.555C92.2693 117.669 89.5367 116.639 86.8891 115.471C86.6724 115.663 86.4937 115.883 86.3597 116.123C86.2369 116.329 86.1535 116.549 86.1123 116.776C86.0459 117.132 86.1008 117.496 86.2706 117.827Z" fill="#4E3535"/>
<path d="M127.651 73.2439C128.997 73.7107 136.355 77.1733 136.355 77.1733C140.066 70.9204 140.417 66.1108 140.41 64.472C140.41 64.0752 140.385 63.8552 140.385 63.8552L139.257 63.2383L135.873 61.3877C135.873 61.3877 127.812 65.348 126.092 67.7949C124.373 70.2418 126.295 72.7751 127.651 73.2439Z" fill="#F8AD88"/>
<path d="M131.673 69.6516C131.673 69.6516 130.231 67.8976 128.653 68.1176C127.074 68.3377 126.889 69.9353 127.181 71.5063C127.472 73.0773 130.323 73.5481 133.104 74.8189C135.884 76.0896 136.832 77.6297 136.832 77.6297C136.832 77.6297 126.441 74.4817 126.24 73.1061C126.04 71.7304 124.986 68.0395 126.686 67.4082C128.385 66.777 130.434 66.5097 131.226 67.4288C132.017 68.3479 131.673 69.6516 131.673 69.6516Z" fill="#D27358"/>
<path d="M131.357 68.8437C132.179 69.3865 132.218 71.8643 132.218 71.8643C132.547 71.1391 132.779 70.3861 132.911 69.6189C133.121 68.3687 134.314 65.9177 136.041 65.5969C137.293 65.3666 139.364 64.7744 140.41 64.466C140.41 64.0691 140.385 63.8491 140.385 63.8491L139.257 63.2323C137.115 62.8745 133.831 62.9978 133.831 62.9978C133.831 62.9978 130.536 68.3091 131.357 68.8437Z" fill="#D27358"/>
<path d="M89.8379 118.069C91.5325 118.841 93.293 119.507 95.1053 120.064C96.8372 120.619 98.9352 121.224 101.466 121.878C104.459 122.65 107.547 123.138 110.672 123.333C113.259 123.493 115.857 123.462 118.436 123.241H118.466C118.751 123.216 119.033 123.189 119.312 123.161L119.478 123.142H119.503C120.22 123.065 120.912 122.979 121.578 122.883H121.606C127.311 122.061 131.022 120.59 131.331 120.465H131.354L132.457 103.047C132.457 103.047 132.301 84.7812 130.06 77.9936C129.659 76.7825 129.194 75.9374 128.649 75.6269C125.057 73.5707 94.754 75.6269 91.5376 80.5392C89.2862 83.969 87.913 99.6477 87.2896 108.8C87.1931 110.213 87.1164 111.473 87.0421 112.501C86.9679 113.77 86.9184 114.701 86.8962 115.174C86.8962 115.38 86.8789 115.503 86.8789 115.503C86.8492 115.54 86.337 116.418 89.8379 118.069Z" fill="#BD65B4"/>
<path d="M125.632 71.6134C125.632 71.819 125.632 72.0246 125.644 72.22L125.659 72.5531L127.651 73.2439C126.523 72.3947 125.672 67.9286 128.349 67.6613C128.543 67.6428 128.739 67.6428 128.933 67.6613C131.194 67.8669 132.109 70.5667 132.109 70.5667L133.777 64.762C133.777 64.762 135.756 65.163 140.385 63.8676C145.014 62.5721 146.996 58.5954 146.83 55.9141C146.665 53.2328 143.819 53.0127 143.119 53.7263C142.419 54.4398 140.969 55.9141 140.969 55.9141C141.111 55.3529 141.135 54.7755 141.041 54.2074C140.994 53.827 140.925 53.4754 140.865 53.2163C135.685 54.864 131.362 57.9667 128.646 61.9861C128.38 62.3754 128.133 62.7736 127.903 63.1808C126.504 65.6316 125.733 68.2973 125.639 71.0088C125.635 71.2103 125.632 71.4119 125.632 71.6134Z" fill="url(#paint2_linear_1_10761)"/>
<path d="M124.668 65.603C124.059 67.3542 123.726 69.1638 123.678 70.9862C123.678 71.1425 123.678 71.2988 123.678 71.4571C123.678 71.6154 123.678 71.7326 123.678 71.8683" stroke="#231F20" stroke-miterlimit="10"/>
<path d="M123.684 71.457C123.684 71.9279 125.643 72.2199 125.643 72.2199C125.25 69.4111 127.207 64.5399 127.207 64.5399C131.599 55.7474 140.872 53.2162 140.872 53.2162C142.91 52.5684 145.048 52.1601 147.223 52.003C146.78 51.4586 146.304 50.9329 145.798 50.428C141.693 50.8886 137.784 52.1721 134.41 54.1677C131.035 56.1634 128.294 58.8113 126.425 61.8832C126.191 62.2657 125.972 62.655 125.767 63.0511C125.334 63.8806 124.968 64.7331 124.671 65.6029C124.006 67.3302 123.691 70.9861 123.684 71.457Z" fill="#4E3535"/>
<path d="M123.692 71.8704C123.692 71.9814 123.692 72.0924 123.692 72.2014C123.84 75.9239 125.173 79.5472 127.554 82.7026H127.576C128.281 82.7026 128.982 82.6779 129.672 82.6244C127.24 79.638 125.848 76.1513 125.649 72.5489L123.692 71.8704Z" stroke="#231F20" stroke-miterlimit="10"/>
<path opacity="0.4" d="M128.653 61.986C129.781 60.7954 131.899 58.1573 133.317 57.2053C133.98 55.9983 134.514 53.9256 135.454 53.2162C137.941 51.343 138.176 49.4307 138.176 49.4307L131.849 51.2813L128.653 61.986Z" fill="#4E3535"/>
<path d="M105.715 55.4391C111.216 59.7266 118.255 62.3988 125.756 63.0471C126.463 63.1088 127.177 63.152 127.896 63.1766C128.047 62.9134 128.203 62.6523 128.368 62.3973C128.455 62.2575 128.547 62.1197 128.641 61.9861C127.898 61.9717 127.156 61.9388 126.414 61.8833C118.886 61.3409 111.78 58.7598 106.188 54.5364C106.134 54.6289 106.082 54.7235 106.032 54.8181C105.928 55.0216 105.819 55.2314 105.715 55.4391Z" fill="#CEEBE9"/>
<path d="M104.028 65.0354C104.087 65.5124 104.17 65.984 104.275 66.4501C109.898 69.9753 116.684 71.9845 123.722 72.2075C124.177 72.2219 124.635 72.2301 125.095 72.2301H125.664C125.664 72.0245 125.652 71.8189 125.652 71.6235C125.652 71.4282 125.652 71.2123 125.664 71.019C125.501 71.019 125.337 71.019 125.169 71.019C124.674 71.019 124.187 71.0101 123.707 70.9923C116.562 70.7524 109.685 68.6705 104.028 65.0354Z" fill="#CEEBE9"/>
<path d="M131.355 71.4571C131.355 71.4571 130.658 69.625 129.423 69.0451C128.189 68.4653 127.488 69.2692 127.595 70.3632C127.595 70.3632 127.916 69.3577 128.857 69.6702C129.797 69.9827 131.355 71.4571 131.355 71.4571Z" fill="#D27358"/>
<path d="M138.7 65.0787C138.749 65.1517 138.777 65.2332 138.781 65.3167C138.785 65.4002 138.765 65.4834 138.724 65.5595C138.682 65.6356 138.619 65.7024 138.541 65.7546C138.462 65.8069 138.37 65.843 138.272 65.8601C137.517 65.9912 136.801 66.2441 136.164 66.6045C135.006 67.3015 134.85 67.3426 135.003 66.6476C135.157 65.9526 136.144 65.1857 137.104 64.9184C137.792 64.7312 138.415 64.6798 138.7 65.0787Z" fill="url(#paint3_linear_1_10761)"/>
<path d="M137.914 67.3042C137.756 66.8458 137.835 66.4246 138.091 66.3634C138.347 66.3022 138.683 66.6242 138.842 67.0826C139 67.541 138.921 67.9622 138.665 68.0234C138.409 68.0846 138.073 67.7626 137.914 67.3042Z" fill="#01010B"/>
<path d="M133.602 74.455C133.759 74.6544 133.985 74.8097 134.25 74.9004C134.515 74.991 134.806 75.0128 135.087 74.9629C135.784 74.8744 136.618 74.4632 137.43 73.616C137.43 73.616 135.344 72.444 134.854 71.5063C134.617 71.7868 134.398 72.0771 134.196 72.3761C133.719 73.065 133.248 73.9841 133.602 74.455Z" fill="#7A2B18"/>
<path d="M133.6 74.4551C133.756 74.6545 133.982 74.8098 134.247 74.9005C134.512 74.9911 134.804 75.0129 135.084 74.963C135.221 74.5047 135.211 74.0246 135.054 73.5707C134.898 73.1168 134.601 72.7049 134.193 72.3762C133.716 73.0651 133.246 73.9842 133.6 74.4551Z" fill="#EE7671"/>
<path opacity="0.65" d="M110.67 123.333C122.563 124.08 131.354 120.455 131.354 120.455L132.457 103.036C132.457 103.036 132.301 84.771 130.06 77.9834C127.942 80.4899 121.838 88.3961 123.026 95.011C124.446 102.917 122.261 119.221 110.67 123.333Z" fill="#4E3535"/>
<path d="M131.984 110.461C131.984 110.461 126.69 103.857 125.139 94.3119L126.376 88.5791L132.16 107.622L131.984 110.461Z" fill="#4E3535"/>
<path d="M120.234 73.244C136.499 79.8959 146.287 91.1105 150.248 96.3457C151.257 97.6802 151.886 98.626 152.148 99.0064C153.437 100.882 154.941 100.435 155.265 99.0064C155.589 97.5773 154.404 95.8789 146.836 85.8754C142.405 80.0172 135.455 76.2913 130.437 74.2104C128.47 73.3754 126.428 72.666 124.331 72.0884C121.555 70.5421 120.234 73.244 120.234 73.244Z" fill="url(#paint4_linear_1_10761)"/>
<path opacity="0.65" d="M86.9074 115.15C90.3069 117.044 102.645 120.907 109.13 120.985C116.396 121.072 123.349 117.679 123.413 115.726C123.477 113.772 127.406 93.541 127.406 93.541C125.828 72.6518 93.397 102.889 87.2884 108.784C87.0757 111.934 86.9544 114.311 86.9074 115.15Z" fill="#4E3535"/>
<path opacity="0.29" d="M120.233 73.244C136.497 79.8959 146.285 91.1105 150.246 96.3457C147.71 92.5478 140.102 81.4566 135.965 78.7012C130.958 75.3599 130.441 74.2166 130.441 74.2166C128.473 73.3816 126.432 72.6722 124.335 72.0946C121.554 70.5421 120.233 73.244 120.233 73.244Z" fill="#4E3535"/>
<path d="M151.161 101.848L151.834 102.155L156.158 104.067C157.932 101.655 157.205 101.32 157.044 99.0435C156.945 97.6309 156.003 96.9873 155.312 96.7117C155.071 96.6116 154.812 96.5423 154.545 96.5061C154.563 96.539 154.793 97.0016 154.476 97.9722C154.152 98.9818 153.588 98.844 152.165 99.0229C150.743 99.2018 151.161 101.848 151.161 101.848Z" fill="#CEEBE9"/>
<path opacity="0.65" d="M151.834 102.154L156.158 104.067C157.932 101.655 157.205 101.32 157.044 99.0434C156.945 97.6308 156.003 96.9872 155.312 96.7117C155.26 97.4334 155.053 99.0249 154.224 99.2943C153.145 99.6459 151.656 98.9756 151.502 100.483C151.426 101.055 151.54 101.633 151.834 102.154Z" fill="#4E3535"/>
<path d="M145.514 113.772C145.514 113.772 145.818 116.41 148.483 115.54C148.569 115.514 148.658 115.481 148.75 115.446C151.652 114.309 154.876 108.613 156.004 105.465C156.427 104.289 156.227 103.409 155.732 102.792C154.908 101.745 153.258 101.377 152.295 101.377C150.764 101.377 147.862 104.462 147.862 104.462L145.514 113.772Z" fill="#BD65B4"/>
<path d="M113.299 117.841C116.646 118.726 129.462 119.036 136.657 118.355C138.32 118.197 139.68 117.987 140.556 117.72C140.738 117.662 140.915 117.593 141.086 117.515C142.075 117.062 142.172 116.608 141.786 116.18C141.323 115.666 140.145 115.189 138.911 114.806C137.702 114.442 136.469 114.137 135.217 113.891C135.217 113.891 134.415 113.994 133.069 114.097C130.279 114.316 127.474 114.367 124.675 114.249C122.438 114.16 120.214 113.919 118.024 113.53L113.299 117.841Z" fill="url(#paint5_linear_1_10761)"/>
<path d="M135.601 114.508C139.312 120.06 147.288 117.387 148.741 115.446C149.263 114.749 149.292 113.133 149.122 111.35C148.852 109.035 148.428 106.735 147.852 104.459C147.852 104.459 146.885 102.786 144.141 91.2626C141.398 79.7395 130.761 77.1733 130.761 77.1733C130.2 77.2638 129.67 77.4554 129.208 77.7347C127.107 78.9972 126.511 82.0528 126.239 86.305C125.929 91.462 131.894 108.94 135.601 114.508Z" fill="#BD65B4"/>
<path opacity="0.65" d="M147.639 112.678L148.475 115.54C148.562 115.514 148.651 115.481 148.742 115.446C151.644 114.309 154.868 108.613 155.996 105.465C156.419 104.289 156.219 103.409 155.724 102.792C154.94 105.574 150.434 110.756 150.434 110.756L147.639 112.678Z" fill="#4E3535"/>
<path opacity="0.65" d="M135.601 114.508C139.312 120.06 147.288 117.387 148.741 115.446C149.263 114.749 149.292 113.133 149.122 111.35C145.163 112.892 140.245 112.542 136.83 104.058C133.025 94.5998 130.061 77.9773 130.061 77.9773C129.814 77.8281 129.518 77.7436 129.212 77.7346C127.112 78.9971 126.516 82.0527 126.244 86.305C125.929 91.462 131.894 108.94 135.601 114.508Z" fill="#4E3535"/>
<path opacity="0.29" d="M113.299 117.841C117.599 118.978 137.523 119.165 141.086 117.523C142.075 117.07 142.172 116.616 141.786 116.188C139.464 116.393 137.129 116.483 134.794 116.457C128.391 116.398 124.786 114.323 124.675 114.259L118.489 113.11L118.017 113.542L113.299 117.841Z" fill="#4E3535"/>
<path opacity="0.65" d="M133.068 114.107C133.104 114.276 133.162 114.44 133.239 114.599C133.721 115.582 134.743 115.627 135.243 116.787C135.475 117.329 136.079 117.901 136.655 118.355C138.318 118.197 139.679 117.987 140.555 117.72L138.912 114.815C137.703 114.45 136.47 114.145 135.218 113.9C135.218 113.9 134.414 114.002 133.068 114.107Z" fill="#4E3535"/>
<path d="M141.084 118.082C143.019 117.835 145.515 117.299 145.515 117.299C145.515 117.299 148.497 117.142 149.82 113.875C150.208 112.866 150.414 111.816 150.434 110.758C150.681 104.459 147.853 104.459 147.853 104.459C147.853 104.459 148.796 107.955 148.499 110.733C148.449 111.311 148.314 111.881 148.096 112.431C146.933 115.193 141.084 118.082 141.084 118.082Z" fill="#CEEBE9"/>
<path opacity="0.29" d="M141.082 118.082C143.017 117.835 145.513 117.299 145.513 117.299C145.513 117.299 148.495 117.142 149.818 113.875C149.818 113.875 150.56 110.02 149.323 108.547C149.11 109.29 148.837 110.02 148.507 110.733C148.457 111.311 148.321 111.881 148.104 112.432C146.931 115.193 141.082 118.082 141.082 118.082Z" fill="#4E3535"/>
<path opacity="0.65" d="M140.457 87.3104L139.539 86.9424C136.716 88.2079 133.628 89.0153 130.442 89.3214L131.53 93.5408H132.458L140.457 87.3104Z" fill="#4E3535"/>
<path d="M138.621 94.6801L137.775 94.312L133.749 95.2826L136.773 102.115H137.728L138.621 94.6801Z" fill="#28383B"/>
<path d="M136.984 116.342C136.984 116.363 136.996 117.07 138.619 117.831C138.828 117.921 139.052 117.984 139.284 118.016C141.652 118.399 147.449 117.264 148.82 112.035C150.351 106.205 147.852 104.464 147.852 104.464C148.231 105.504 147.951 106.779 147.385 108.058L147.32 108.2C147.236 108.387 147.145 108.574 147.046 108.759C146.972 108.905 146.895 109.053 146.811 109.203C146.327 110.05 145.787 110.873 145.195 111.671C145.194 111.676 145.194 111.682 145.195 111.687C145.089 111.831 144.985 111.969 144.883 112.098C144.505 112.559 144.043 112.967 143.513 113.307C143.293 113.456 143.06 113.604 142.818 113.747L142.793 113.76C140.348 115.197 136.984 116.342 136.984 116.342Z" fill="white"/>
<path opacity="0.65" d="M125.074 72.2241C125.074 72.2241 126.863 75.5881 129.681 76.5258C132.499 77.4634 135.816 79.4888 135.816 79.4888C135.816 79.4888 130.69 76.5545 128.812 78.7012C126.934 80.8479 122.978 77.4017 122.921 74.8191C122.864 72.2365 124.334 72.0925 124.334 72.0925L125.074 72.2241Z" fill="#4E3535"/>
<path d="M105.617 55.4884C111.117 59.7759 118.156 62.4481 125.657 63.0964C126.364 63.1581 127.078 63.2013 127.797 63.2259C127.948 62.9628 128.104 62.7016 128.27 62.4466C124.954 62.241 117.725 61.5028 112.386 58.9038C109.046 57.2773 107.081 55.8852 105.933 54.8633C105.829 55.0668 105.72 55.2725 105.617 55.4884Z" fill="#43675E"/>
<path opacity="0.56" d="M136.983 116.342C136.983 116.363 136.995 117.07 138.618 117.831C138.827 117.921 139.052 117.983 139.284 118.016C140.767 117.96 142.213 117.609 143.5 116.994C144.787 116.379 145.879 115.517 146.684 114.479C149.504 110.895 148.092 106.339 148.092 106.339C148.092 106.339 147.844 107.054 147.384 108.058L147.32 108.2C147.235 108.387 147.144 108.574 147.045 108.759C146.971 108.905 146.894 109.053 146.81 109.203C146.357 110.062 145.816 110.888 145.194 111.671C145.194 111.676 145.194 111.682 145.194 111.687C144.719 112.286 144.154 112.832 143.512 113.312C143.294 113.473 143.061 113.62 142.817 113.752L142.792 113.764C140.348 115.197 136.983 116.342 136.983 116.342Z" fill="#4E3535"/>
<path opacity="0.4" d="M120.352 55.2952C120.352 55.2952 121.577 57.9025 118.917 60.2466C116.258 62.5907 114.578 63.2672 114.244 65.9197C113.91 68.5722 109.085 70.9492 106.425 70.1535C103.766 69.3577 115.085 72.2241 115.085 72.2241L124.18 57.3946L120.352 55.2952Z" fill="#4E3535"/>
<path opacity="0.4" d="M103.894 63.0163C103.894 63.699 103.936 64.3713 104.015 65.0355C104.074 65.5125 104.157 65.9841 104.262 66.4502C104.778 68.9028 105.854 71.2507 107.432 73.3673C112.073 73.869 117.34 72.2446 114.829 70.429C111.306 67.8834 109.804 58.2767 113.748 55.0895C116.717 52.6981 116.47 47.977 116.158 45.7666C111.819 47.7554 108.336 50.8216 106.197 54.5364C106.026 54.8325 105.865 55.1348 105.715 55.4391C104.509 57.8394 103.89 60.4152 103.894 63.0163Z" fill="#4E3535"/>
<path d="M85.3824 78.3352C86.3572 79.569 91.058 81.1913 95.833 82.1783C99.5739 82.9514 103.362 83.336 105.443 82.8404C105.728 82.7743 106.003 82.6783 106.259 82.5546C107.788 81.7815 108.98 79.2153 109.522 76.1515C110.309 71.78 109.802 66.3988 107.147 63.7977C102.632 59.3768 105.203 56.5557 109.807 54.5447C114.411 52.5337 113.191 48.6659 113.518 45.049C113.845 41.4321 114.968 41.9647 117.185 40.9613C119.401 39.9578 118.273 35.87 122.544 30.9145C122.774 30.6493 122.999 30.4046 123.224 30.1784C123.449 29.9522 123.612 29.8001 123.8 29.6315C127.437 26.4011 130.097 28.1345 130.604 25.447C131.168 22.4593 137.99 22.2496 137.99 22.2496C137.99 22.2496 141.085 22.6074 141.325 21.4703C141.421 21.0179 141.146 20.8082 140.637 20.7691C139.867 20.7074 138.571 21.0261 137.215 21.4703C134.959 22.2105 130.04 22.6732 125.931 23.0536C121.821 23.434 121.576 24.4148 121.576 27.0961C121.576 29.7774 118.756 33.125 110.505 33.6596C103.307 34.1284 102.189 36.7439 103.288 39.0407C103.452 39.384 103.655 39.7131 103.896 40.0236C104.512 40.8235 104.916 41.5884 104.98 42.3163C105.002 42.4817 105.002 42.6486 104.98 42.8139C104.797 44.1381 103.332 45.3328 99.7421 46.3815C93.7771 48.1231 97.8074 52.3445 98.4506 55.4926C99.0939 58.6407 96.1943 56.8333 92.8097 62.2596C89.4251 67.686 88.4379 64.065 84.9123 67.4043C81.3867 70.7436 83.5293 75.9891 85.3824 78.3352Z" fill="url(#paint6_linear_1_10761)"/>
<path opacity="0.18" d="M91.9958 75.1767V79.4721C93.1989 80.4469 94.4819 81.351 95.8356 82.1781C98.2405 83.6483 101.306 85.0424 103.533 84.4975C104.052 84.3701 104.703 83.7799 105.445 82.8402C106.628 81.3412 108.04 78.9581 109.525 76.1513C110.312 71.7798 109.804 66.3986 107.15 63.7975C102.634 59.3766 105.205 56.5555 109.809 54.5445C114.414 52.5335 113.194 48.6658 113.521 45.0489C113.847 41.4319 114.97 41.9645 117.187 40.9611C119.404 39.9576 118.276 35.8699 122.546 30.9144C122.776 30.6491 123.001 30.4044 123.227 30.1782C121.326 31.3667 119.439 33.5833 118.499 35.9357C117.192 39.2256 114.567 38.6087 109.654 42.8178C104.74 47.0269 107.716 53.8228 105.057 54.7542C102.397 55.6857 101.912 59.5823 102.155 62.463C102.397 65.3438 99.8981 68.2924 95.8727 69.2959C91.8473 70.2993 91.9958 75.1767 91.9958 75.1767Z" fill="#4E3535"/>
<path d="M138.869 116.451C140.502 116.402 142.345 115.639 143.951 114.377C146.747 112.189 148.827 108.5 147.855 104.459C147.713 104.988 147.535 105.51 147.323 106.022C146.17 108.87 142.939 114.607 135.603 114.506C135.603 114.508 134.396 116.585 138.869 116.451Z" fill="#CEEBE9"/>
<path d="M140.46 87.3105C137.665 88.6745 134.571 89.5629 131.358 89.924L132.462 93.5409C132.462 93.5409 137.348 92.8274 140.131 91.5546C140.651 91.3165 141.063 90.9437 141.304 90.4931C141.545 90.0424 141.603 89.5386 141.467 89.0583C141.242 88.2544 140.893 87.3825 140.46 87.3105Z" fill="#CEEBE9"/>
<path d="M138.622 94.6802L141.086 100.843L137.729 102.115L134.794 95.6857L138.622 94.6802Z" fill="#EE7671"/>
<path d="M106.254 83.4264C108.765 84.6889 117.882 84.1049 122.83 81.2776C123.127 81.109 123.411 80.9301 123.676 80.7451C128.362 77.4551 124.874 76.0569 124.327 72.0925C123.78 68.1281 130.153 64.8031 130.96 58.0155C131.767 51.2279 138.417 51.4048 138.706 48.121C138.731 47.839 138.773 47.5583 138.833 47.28C138.892 47.0065 138.966 46.7371 139.055 46.4739C139.09 46.3691 139.127 46.2683 139.164 46.1676C139.458 45.3824 139.874 44.6324 140.401 43.9366C141.24 42.8468 142.133 42.2566 142.484 42.5795C142.836 42.9023 142.618 43.3711 142.338 43.9222C142.335 43.9293 142.331 43.9362 142.326 43.9427C142.012 44.5596 141.596 45.2361 141.638 45.8283C141.717 46.9674 143.573 46.2642 143.734 44.1833C143.895 42.1024 144.54 37.0153 146.834 34.5376C149.127 32.0598 150.434 29.3641 150.513 27.1536C150.548 26.1996 150.238 25.556 149.808 25.4552C149.244 25.3174 148.472 26.1153 148.014 28.3607C147.302 31.8665 142.843 34.0009 141.846 34.4389L141.648 34.5232C138.261 35.3929 140.52 34.589 135.958 35.3271C131.395 36.0653 131.178 38.1401 132.469 39.4129C133.761 40.6857 131.502 40.2169 132.066 42.4273C132.126 42.6542 132.165 42.8844 132.185 43.1161C132.346 44.9667 131.079 46.696 126.247 48.6063C125.982 48.7111 125.707 48.8119 125.42 48.9229C119.26 51.2012 120.133 54.6803 120.779 57.6989C121.425 60.7174 117.315 60.9888 116.425 65.0334C115.534 69.078 112.558 69.0472 106.184 71.455C99.8109 73.8629 103.601 82.0857 106.254 83.4264Z" fill="url(#paint7_linear_1_10761)"/>
<path opacity="0.18" d="M107.985 77.9774L122.829 81.2777C123.126 81.1091 123.411 80.9302 123.676 80.7451C128.362 77.4551 124.873 76.0569 124.326 72.0925C123.78 68.1281 130.153 64.8032 130.959 58.0156C131.766 51.228 138.416 51.4048 138.706 48.121C138.73 47.8391 138.772 47.5584 138.832 47.28C137.889 49.7064 134.94 49.8647 131.625 51.851C127.973 54.0388 126.412 56.5063 127.585 60.1808C128.757 63.8553 122.542 69.625 116.417 71.0788C110.291 72.5325 107.985 77.9774 107.985 77.9774Z" fill="#4E3535"/>
<path d="M83.5294 112.23C85.296 113.93 101.049 118.411 107.956 119.449C108.725 119.576 109.506 119.645 110.289 119.655C114.805 119.587 120.822 116.445 120.822 116.445C120.822 116.445 127.727 79.505 129.246 77.714C129.246 77.714 129.815 76.9306 128.694 77.3933C128.694 77.3933 117.182 82.2912 112.021 82.5523C111.767 82.5667 111.511 82.5667 111.257 82.5523C106.583 82.285 84.4968 77.3912 84.4968 77.3912C84.4968 77.3912 81.758 90.4585 82.0054 103.121C82.0054 103.121 81.5106 110.289 83.5294 112.23Z" fill="url(#paint8_linear_1_10761)"/>
<path d="M107.956 119.451C108.725 119.578 109.506 119.647 110.289 119.657C114.805 119.589 120.822 116.447 120.822 116.447C120.822 116.447 127.727 79.505 129.246 77.714C129.246 77.714 129.815 76.9306 128.694 77.3933C128.694 77.3933 117.182 82.2912 112.021 82.5523C112.021 82.5523 106.106 113.272 107.956 119.451Z" fill="url(#paint9_linear_1_10761)"/>
<path d="M140.348 95.4702C139.877 94.1625 140.019 92.972 140.666 92.8111C141.313 92.6502 142.219 93.5798 142.69 94.8874C143.161 96.1951 143.019 97.3856 142.372 97.5465C141.725 97.7074 140.819 96.7778 140.348 95.4702Z" fill="#CEEBE9"/>
<path d="M106.828 86.9426L85.385 82.9556L84.9149 89.1057L106.022 93.541L106.828 86.9426Z" fill="#CEEBE9"/>
<path opacity="0.65" d="M85.3852 82.9554L86.7162 82.5544L107.996 86.4407L107.068 93.3394L106.022 93.5409L106.828 86.9424L85.3852 82.9554Z" fill="#4E3535"/>
<path d="M99.0783 113.852C99.5005 113.899 99.9298 113.872 100.339 113.774C100.748 113.675 101.127 113.506 101.453 113.278C101.78 113.05 102.045 112.769 102.232 112.451C102.42 112.133 102.525 111.786 102.542 111.432L103.532 99.1812C103.589 98.4401 103.311 97.7081 102.752 97.1287C102.193 96.5493 101.394 96.1644 100.511 96.0495C100.089 96.0026 99.6594 96.0295 99.2504 96.1283C98.8414 96.2272 98.4617 96.3959 98.1357 96.6237C97.8097 96.8515 97.5445 97.1334 97.357 97.4513C97.1695 97.7691 97.064 98.116 97.0471 98.4697L96.0574 110.721C95.9998 111.462 96.2778 112.194 96.8368 112.774C97.3958 113.353 98.1954 113.738 99.0783 113.852Z" fill="#28383B"/>
<path d="M98.3361 113.088C98.722 113.13 99.1144 113.106 99.4883 113.016C99.8621 112.925 100.209 112.771 100.507 112.563C100.806 112.355 101.049 112.098 101.22 111.808C101.392 111.517 101.489 111.2 101.505 110.877L102.406 99.6871C102.464 99.007 102.212 98.3337 101.7 97.8006C101.189 97.2675 100.455 96.9134 99.6449 96.8084C99.2587 96.7652 98.866 96.7895 98.4918 96.8797C98.1176 96.97 97.7701 97.1242 97.4718 97.3324C97.1734 97.5407 96.9307 97.7985 96.7592 98.0892C96.5876 98.38 96.491 98.6973 96.4755 99.0209L95.5799 110.219C95.5249 110.897 95.7773 111.567 96.2874 112.098C96.7976 112.629 97.5284 112.982 98.3361 113.088Z" fill="#EE7671"/>
<path d="M86.9566 110.441C87.3388 110.483 87.7273 110.459 88.0975 110.369C88.4676 110.28 88.8113 110.127 89.1065 109.921C89.4016 109.715 89.6419 109.46 89.8119 109.173C89.9819 108.885 90.0779 108.571 90.0938 108.251L90.982 97.166C91.032 96.4979 90.7806 95.8383 90.277 95.3159C89.7733 94.7935 89.0535 94.4459 88.258 94.3408C87.8762 94.2982 87.4878 94.3223 87.1178 94.4115C86.7478 94.5008 86.4042 94.6533 86.1092 94.8592C85.8141 95.0651 85.5741 95.32 85.4043 95.6074C85.2345 95.8949 85.1388 96.2086 85.1233 96.5286L84.2351 107.605C84.1824 108.275 84.4322 108.937 84.9356 109.461C85.4389 109.985 86.1596 110.335 86.9566 110.441Z" fill="#28383B"/>
<path d="M86.3035 109.748C86.6527 109.787 87.0079 109.765 87.3462 109.683C87.6846 109.602 87.9988 109.462 88.2686 109.274C88.5385 109.086 88.7581 108.853 88.9135 108.59C89.0689 108.327 89.1566 108.04 89.171 107.747L89.9825 97.6143C90.0285 97.0015 89.798 96.3964 89.3359 95.9173C88.8738 95.4382 88.2134 95.1195 87.4837 95.0235C87.1344 94.9846 86.7793 95.0068 86.4409 95.0884C86.1026 95.1701 85.7884 95.3095 85.5185 95.4978C85.2487 95.6861 85.0291 95.9191 84.8737 96.1819C84.7183 96.4448 84.6306 96.7316 84.6162 97.0242L83.8046 107.157C83.7586 107.77 83.9892 108.375 84.4513 108.854C84.9134 109.333 85.5738 109.652 86.3035 109.748Z" fill="#EE7671"/>
<path d="M154.366 16.6442C155.175 17.3701 156.82 18.7765 159.562 18.4948C160.624 18.3663 161.647 18.0674 162.573 17.6148L162.743 17.5366C165.712 16.0973 169.891 11.3227 172.759 7.38094C173.029 7.01082 173.286 6.64892 173.531 6.29525C173.531 6.29525 173.548 6.27058 173.558 6.25824C174.824 4.4282 175.72 2.89631 175.943 2.14579C176.401 0.636519 175.569 0.175924 174.884 0.0443255C174.521 -0.0233112 174.143 -0.0134078 173.785 0.0731125C171.809 0.531652 169.886 1.13726 168.04 1.88259C168.019 1.88986 167.998 1.89881 167.979 1.90932C161.675 4.45698 157.174 8.10267 154.703 9.8299C154.636 9.87925 154.566 9.92655 154.502 9.96973L154.467 9.9944C151.385 12.1596 153.285 15.6758 154.366 16.6442Z" fill="url(#paint10_linear_1_10761)"/>
<path opacity="0.15" d="M154.468 10.0005L156.336 9.52552C159.672 6.45876 163.611 3.88603 167.984 1.91748C161.675 4.45692 157.175 8.10261 154.703 9.82984C154.637 9.87919 154.567 9.92648 154.503 9.96966L154.468 10.0005Z" fill="#43675E"/>
<path opacity="0.15" d="M159.557 18.5031C160.62 18.3745 161.642 18.0756 162.568 17.623L162.739 17.5449C165.708 16.1055 169.886 11.3309 172.754 7.38916C172.487 7.67086 163.832 16.6771 160.509 17.9643C160.157 18.0969 159.835 18.2792 159.557 18.5031Z" fill="#43675E"/>
<path d="M154.366 16.644C155.44 17.6043 157.976 19.7613 162.57 17.6228C163.869 16.0703 163.505 13.5885 161.558 11.6741C159.611 9.75978 156.758 9.05243 154.702 9.83586C154.636 9.88521 154.566 9.9325 154.502 9.97568C151.37 12.1327 153.28 15.6714 154.366 16.644Z" fill="#4E3535"/>
<path d="M154.781 16.4329C152.92 14.6016 152.792 12.1475 154.495 10.9515C156.199 9.75549 159.089 10.2705 160.95 12.1018C162.812 13.9332 162.94 16.3873 161.236 17.5833C159.533 18.7793 156.643 18.2643 154.781 16.4329Z" fill="#1B232A"/>
<path d="M165.209 19.7779C165.357 19.671 171.214 15.3632 167.621 11.9272L164.697 14.5243L164.066 15.0856C164.066 15.0856 166.11 16.7491 165.209 19.7779Z" fill="#6EC5A2"/>
<path d="M151.805 8.03472C155.481 7.4014 157.406 9.16153 157.406 9.16153L158.081 8.67831L161.34 6.33422C157.347 3.21698 151.938 7.91751 151.807 8.03472H151.805Z" fill="#6EC5A2"/>
<path d="M167.497 8.62906C166.087 8.62906 164.944 7.679 164.944 6.50703C164.944 5.33507 166.087 4.38501 167.497 4.38501C168.908 4.38501 170.051 5.33507 170.051 6.50703C170.051 7.679 168.908 8.62906 167.497 8.62906Z" fill="white"/>
<path d="M119.961 159.237C119.961 159.258 119.961 159.281 119.961 159.303C120.016 160.286 121.693 161.625 123.883 162.519C126.072 163.414 133.341 163.457 135.061 161.582C135.803 160.759 135.994 160.076 135.961 159.558C135.951 159.175 135.798 158.805 135.524 158.497C135.524 158.497 134.039 158.859 130.548 159.84C127.057 160.821 120.231 157.876 120.231 157.876C120.231 157.876 119.924 158.3 119.961 159.237Z" fill="white"/>
<path opacity="0.56" d="M119.962 159.237C122.001 160.43 126.249 161.577 129.98 161.402C134.579 161.185 135.886 159.655 135.965 159.552C135.954 159.169 135.801 158.798 135.527 158.491C135.527 158.491 134.042 158.853 130.551 159.834C127.06 160.814 120.234 157.87 120.234 157.87C120.234 157.87 119.925 158.3 119.962 159.237Z" fill="#4E3535"/>
<path d="M135.741 155.598C135.741 155.598 133.237 158.008 128.291 158.32C123.345 158.633 119.528 156.153 119.528 156.153C119.528 156.153 118.291 157.337 121.413 158.812C124.535 160.286 126.948 161.09 131.354 160.251C135.76 159.412 136.955 157.609 135.741 155.598Z" fill="#CEEBE9"/>
<path d="M135.969 140.059L135.172 139.664C134.946 139.552 134.691 139.486 134.428 139.47C134.165 139.454 133.901 139.49 133.658 139.573C129.798 140.857 125.716 141.621 121.567 141.835C121.418 141.843 121.272 141.876 121.14 141.933C121.007 141.99 120.89 142.069 120.797 142.166C120.704 142.263 120.636 142.375 120.598 142.496C120.56 142.616 120.553 142.741 120.577 142.863L121.757 149.036C121.802 149.266 121.916 149.484 122.089 149.667C122.262 149.85 122.489 149.994 122.747 150.085L123.945 150.496L135.969 140.059Z" fill="#4E3535"/>
<path d="M117.653 192.976C117.901 193.33 122.401 194.019 125.489 194.288H125.546C125.647 194.3 125.719 194.304 125.761 194.306H125.798L124.561 194.496C125.717 194.635 126.882 194.719 128.05 194.746C129.908 194.746 131.085 194.512 131.313 194.045C131.414 193.84 131.335 193.597 131.066 193.307C130.14 192.345 127.26 191.191 127.485 189.943C127.57 189.497 128.621 185.742 129.984 180.832C129.984 180.832 129.806 180.853 129.49 180.879C128.116 180.99 124.116 181.19 120.484 180.123C119.584 179.865 118.725 179.52 117.923 179.094C117.891 179.3 117.864 179.493 117.834 179.693C116.837 186.783 117.344 192.548 117.653 192.976Z" fill="#4E3535"/>
<path d="M129.986 180.842C129.986 180.842 130.728 180.661 130.401 180.225C130.075 179.789 125 180.495 121.373 179.59C117.746 178.685 117.947 177.945 117.546 178.015C117.145 178.085 116.821 178.506 117.623 178.932C118.424 179.358 119.654 181.86 129.986 180.842Z" fill="#CEEBE9"/>
<path opacity="0.56" d="M117.835 179.699C116.846 186.783 117.34 192.548 117.652 192.976C117.914 193.342 122.722 194.068 125.817 194.317C123.882 193.025 121.762 190.704 122.205 186.844C122.986 179.997 127.709 167.966 125.149 153.727C122.588 139.487 114.928 128.598 114.928 128.598L108.409 128.54L102.412 127.991C102.412 127.991 119.909 155.283 120.233 157.878C120.557 160.473 119.156 171.277 117.974 178.78C117.924 179.086 117.88 179.393 117.835 179.699Z" fill="#4E3535"/>
<path d="M167.497 8.00603C166.501 8.00603 165.694 7.33491 165.694 6.50704C165.694 5.67918 166.501 5.00806 167.497 5.00806C168.493 5.00806 169.301 5.67918 169.301 6.50704C169.301 7.33491 168.493 8.00603 167.497 8.00603Z" fill="#1B232A"/>
<path d="M167.983 1.91769C171.867 2.53456 173.146 4.6463 173.534 6.29745C173.534 6.29745 173.552 6.27278 173.562 6.26044C174.828 4.4304 175.724 2.89851 175.947 2.14799C176.404 0.638716 175.573 0.178121 174.888 0.0465228C174.525 -0.0211139 174.147 -0.0112105 173.789 0.0753098C171.813 0.53385 169.89 1.13946 168.044 1.88479L167.983 1.91769Z" fill="#6EC5A2"/>
<path opacity="0.65" d="M109.001 85.0486C109.001 85.0486 108.071 88.026 109.582 89.634C111.094 91.2419 112.499 92.4921 110.669 95.6628C108.838 98.8335 109.229 101.379 112.178 102.897C115.127 104.414 116.384 106.701 114.489 109.421C112.593 112.141 122.371 105.755 121.005 102.771C119.64 99.7876 115.624 95.8006 115.617 92.05C115.609 88.2995 113.746 86.6051 113.746 86.6051L109.001 85.0486Z" fill="#4E3535"/>
<path d="M86.0302 106.421C86.2516 106.446 86.4769 106.432 86.6915 106.38C86.9062 106.328 87.1055 106.24 87.2766 106.121C87.4478 106.001 87.5871 105.853 87.6856 105.687C87.7841 105.52 87.8396 105.338 87.8486 105.152L88.3633 98.7267C88.3936 98.3375 88.2477 97.9529 87.9542 97.6485C87.6608 97.3441 87.241 97.142 86.7773 97.0817C86.5559 97.0573 86.3308 97.0714 86.1163 97.1233C85.9019 97.1751 85.7027 97.2636 85.5316 97.3829C85.3606 97.5023 85.2213 97.65 85.1227 97.8165C85.024 97.9831 84.9683 98.1649 84.9589 98.3504L84.4442 104.776C84.4133 105.165 84.559 105.55 84.8526 105.855C85.1461 106.159 85.5663 106.361 86.0302 106.421Z" fill="white"/>
<path d="M152.96 13.2905C153.78 12.7375 154.824 12.4683 155.876 12.5392C156.929 12.6101 157.907 13.0156 158.609 13.6711C159.31 14.3267 159.68 15.1819 159.642 16.0586C159.604 16.9353 159.16 17.766 158.404 18.3777C158.404 18.3777 155.247 21.2995 146.327 22.7615C146.327 22.7615 146.708 19.4058 152.265 13.9444C152.463 13.7029 152.696 13.4832 152.96 13.2905Z" fill="url(#paint11_linear_1_10761)"/>
<path opacity="0.65" d="M97.2344 80.229C96.9789 80.9788 96.3815 81.6162 95.5693 82.0056C94.1689 82.7108 94.8122 84.1708 92.1055 85.0488C89.3989 85.9268 87.7808 85.7952 88.8545 88.2503C89.9283 90.7054 83.075 86.7513 84.9182 84.2407C86.7614 81.73 93.6321 79.536 93.7929 79.4887C93.9537 79.4414 97.2368 78.5963 97.2344 80.229Z" fill="#4E3535"/>
<path d="M154.542 14.004C154.779 13.8285 155.054 13.6934 155.353 13.6063C155.652 13.5192 155.968 13.4819 156.284 13.4965C156.601 13.5111 156.91 13.5773 157.196 13.6914C157.481 13.8055 157.737 13.9652 157.948 14.1613C158.159 14.3575 158.322 14.5863 158.427 14.8348C158.531 15.0832 158.576 15.3463 158.559 15.6091C158.541 15.8719 158.462 16.1293 158.324 16.3665C158.187 16.6038 157.995 16.8162 157.759 16.9917C157.759 16.9917 155.903 18.7087 150.666 19.5661C150.666 19.5661 150.888 17.5963 154.154 14.3886C154.264 14.2474 154.394 14.1182 154.542 14.004Z" fill="white"/>
<path d="M119.913 42.1599C120.826 43.8049 126.098 42.2935 127.813 38.0063C128.429 36.4641 129.278 35.5882 130.171 34.9446C130.514 34.7004 130.873 34.4712 131.245 34.2578C132.482 33.5319 133.691 32.9274 134.357 31.3071C135.7 28.048 138.279 28.449 140.626 27.3324C141.175 27.0825 141.666 26.7539 142.076 26.3619C142.885 25.562 142.794 24.8752 142.794 24.8752C142.299 26.2159 139.3 27.0199 136.989 27.4208C134.679 27.8218 134.463 29.2529 134.087 30.5936C133.711 31.9343 131.67 32.5121 127.16 34.9693C122.649 37.4264 119 40.5067 119.913 42.1599Z" fill="url(#paint12_linear_1_10761)"/>
<path d="M65.3983 88.2482C69.6711 90.6601 66.8482 93.3394 70.2352 94.68C73.1349 95.8274 74.3175 96.6191 74.7505 97.8178C74.8239 98.0271 74.8769 98.241 74.9088 98.4573C75.1562 100.039 79.1 99.2428 78.7784 96.7938C78.474 94.4683 76.2053 93.7465 76.5665 91.7849C76.5844 91.6775 76.61 91.571 76.6432 91.4662C77.3285 89.2557 79.6641 88.3119 77.811 85.937C75.9579 83.562 76.6011 82.0877 78.2142 82.0301C79.8274 81.9726 79.1025 84.3619 81.1164 85.061C83.1303 85.7601 83.5113 83.0747 83.5113 83.0747C83.5113 83.0747 84.1793 78.2056 84.501 77.4057L90.4017 78.6847C90.4017 78.6847 91.619 78.5901 92.2747 77.8396C92.5864 77.4859 92.7695 76.9821 92.6433 76.2706C92.5845 75.9602 92.5019 75.6532 92.3959 75.3515C91.8862 73.832 91.0153 73.2562 91.0153 73.2562C91.0153 73.2562 90.6986 72.9622 90.1642 72.5324C88.613 71.2864 85.2333 68.9052 82.4772 69.3021C78.766 69.8388 78.8501 71.089 77.4794 69.2589C76.9846 68.6153 75.4531 67.8812 73.6272 67.4309C70.26 66.5982 65.9575 66.7298 65.6334 70.1657C65.2548 74.3152 66.9001 75.5859 66.0886 77.0027C66.038 77.0919 65.9793 77.1779 65.9129 77.2597C65.5906 77.6503 65.1975 77.9971 64.7476 78.2878C63.4067 79.209 62.5531 80.673 62.3205 82.246C62.0038 84.4277 62.9044 86.8397 65.3983 88.2482Z" fill="url(#paint13_linear_1_10761)"/>
<path d="M73.698 80.9465C75.3111 84.7649 77.5675 85.1679 76.9143 87.3105C76.281 89.4099 76.5432 91.6882 76.5556 91.7828C76.5735 91.6754 76.5992 91.5689 76.6323 91.4641C77.3176 89.2536 79.6532 88.3098 77.8001 85.9349C75.947 83.5599 76.5902 82.0856 78.2034 82.028C79.8165 81.9705 79.0916 84.3598 81.1055 85.0589C83.1194 85.758 83.5005 83.0726 83.5005 83.0726C83.5005 83.0726 84.1685 78.2035 84.4901 77.4036L90.3909 78.6825C90.3909 78.6825 91.6081 78.588 92.2638 77.8374C92.4429 77.0169 92.487 76.1799 92.3949 75.3494C92.2613 74.3501 91.8333 73.4988 90.9698 72.9539C90.9698 72.9539 90.6606 72.7668 90.1633 72.5303C88.9064 71.9278 86.4521 70.9943 84.6509 71.8806C82.1521 73.1143 83.2803 75.1952 80.1381 75.4646C76.996 75.7339 72.0873 77.128 73.698 80.9465Z" fill="url(#paint14_linear_1_10761)"/>
<path d="M135.064 140.115C133.23 140.921 129.2 142.358 123.275 142.646C123.115 142.654 122.96 142.69 122.818 142.751C122.676 142.812 122.551 142.897 122.451 143.001C122.352 143.104 122.279 143.224 122.239 143.352C122.198 143.481 122.19 143.615 122.216 143.746L123.403 149.845C123.448 150.078 123.596 150.289 123.818 150.436C124.04 150.584 124.32 150.657 124.603 150.642C127.218 150.503 134.109 149.915 137.392 147.488C137.523 147.39 137.625 147.267 137.688 147.13C137.751 146.992 137.774 146.845 137.756 146.699C137.624 145.551 137.241 142.506 136.702 140.723C136.66 140.584 136.58 140.454 136.469 140.344C136.358 140.234 136.218 140.147 136.061 140.088C135.903 140.029 135.731 140.001 135.559 140.006C135.386 140.01 135.217 140.048 135.064 140.115Z" fill="#CEEBE9"/>
<path d="M101.466 80.9464L108.527 82.2192C108.756 82.2588 108.968 82.3479 109.141 82.4775C109.315 82.6072 109.445 82.7727 109.517 82.9574C109.635 83.2844 109.603 83.7573 109.235 84.4297C108.161 86.3934 110.444 87.3084 111.573 88.2481C112.701 89.1857 114.388 90.3948 112.169 95.1632C110.529 98.6814 112.382 99.8802 114.373 100.937C115.086 101.284 115.766 101.678 116.405 102.113C118.663 103.789 118.743 103.988 114.819 108.946C110.895 113.904 119.307 117.856 124.163 113.106C129.02 108.356 124.304 102.516 122.612 100.573C122.256 100.175 121.96 99.742 121.731 99.2838C120.969 97.7047 121.333 95.9116 123.678 93.1378C126.68 89.5867 124.789 84.6291 120.215 83.7573C117.355 83.2124 116.88 82.4783 116.924 82.0033C116.947 81.8309 117.033 81.6685 117.172 81.5386C121.917 80.5455 128.684 77.4015 128.684 77.4015C128.57 77.1577 128.432 76.9224 128.27 76.6983C127.516 75.6845 125.715 74.0149 122.474 74.9546C117.958 76.2623 117.958 75.3206 116.427 75.006C114.895 74.6914 113.688 74.3891 110.835 75.9251C107.983 77.4611 106.513 74.2493 103.908 75.1787C103.069 75.4769 102.52 76.178 102.159 76.9944C101.382 78.7134 101.466 80.9464 101.466 80.9464Z" fill="url(#paint15_linear_1_10761)"/>
<path opacity="0.31" d="M91.1376 90.0925C91.1376 90.0925 93.154 90.438 92.4539 93.6971C91.7537 96.9562 89.7101 98.922 86.3774 98.8377C83.0448 98.7533 84.5961 95.4387 84.5961 95.4387C84.5961 95.4387 88.2058 95.0419 89.5443 93.255C90.8828 91.4681 91.1376 90.0925 91.1376 90.0925Z" fill="#4E3535"/>
<path d="M88.2046 92.6033C88.2244 93.2921 87.5861 93.6561 86.8389 93.9727C85.7082 94.4498 84.3277 94.8178 84.58 96.029C85.0006 98.042 88.1403 98.1098 89.986 96.4957C91.8317 94.8816 93.2023 91.4662 91.6733 90.5327C90.1443 89.5991 91.8465 89.2599 89.986 88.0549C88.2986 86.961 86.6979 86.5724 87.3412 85.4332C87.4174 85.3003 87.5085 85.1736 87.6133 85.0549C88.8504 83.6155 90.7727 84.9562 91.9875 83.523C93.2023 82.0898 92.8807 81.22 94.0905 81.22C95.3004 81.22 95.8224 80.7882 96.0476 80.3502C96.2727 79.9123 99.7884 80.6217 99.7884 80.6217C99.7884 80.6217 100.669 78.1089 98.9918 77.2536C97.6409 76.5647 96.9853 76.6778 96.7651 75.9129C96.7071 75.6726 96.6798 75.428 96.6834 75.1829C96.6636 73.5832 93.9223 71.5742 91.5026 72.9211L91.4432 72.956C89.1324 74.2905 91.9183 76.1206 90.701 77.2988C89.4837 78.477 88.311 77.8889 88.1502 78.8944C87.9894 79.8999 87.0739 81.5675 85.8641 81.4955C85.3281 81.4525 84.7877 81.5203 84.2908 81.6929C83.794 81.8654 83.3562 82.1374 83.0164 82.4846C82.4869 83.0315 82.0762 83.8623 81.9451 85.1124C81.5938 88.4497 88.1527 90.874 88.2046 92.6033Z" fill="url(#paint16_linear_1_10761)"/>
<path d="M91.1176 156.246C91.1565 156.556 91.2827 156.854 91.4862 157.115C92.3447 158.275 96.7511 159.616 100.46 159.788C104.169 159.961 105.903 158.653 105.618 157.938C105.334 157.222 105.188 157.023 104.705 156.978C104.223 156.932 94.7644 157.202 91.4862 155.102C91.1942 155.431 91.0626 155.839 91.1176 156.246Z" fill="white"/>
<path opacity="0.56" d="M91.1164 156.245C91.636 156.657 92.6578 157.578 97.3858 158.409C102.215 159.258 105.617 157.94 105.617 157.94C105.323 157.22 105.187 157.025 104.704 156.98C104.222 156.934 94.7632 157.204 91.485 155.104C91.1937 155.433 91.0621 155.84 91.1164 156.245Z" fill="#4E3535"/>
<path d="M105.377 155.462C105.377 155.462 98.4493 158.341 91.3956 153.727C91.3956 153.727 90.7251 154.434 91.8038 155.462C92.8825 156.49 94.9756 157.607 99.006 157.878C103.036 158.15 105.191 157.566 105.671 156.94C106.151 156.315 105.377 155.462 105.377 155.462Z" fill="#CEEBE9"/>
<path d="M91.6567 177.272C91.6567 177.363 91.6567 177.455 91.669 177.548C91.8744 182.277 91.7136 189.645 92.822 190.564C93.6607 191.261 97.2284 191.592 99.9153 191.645C100.294 191.645 100.658 191.658 100.989 191.658C101.251 191.773 101.42 191.843 101.449 191.863C102.05 191.877 102.65 191.837 103.24 191.746C103.55 191.67 103.429 191.38 103.08 190.981C102.154 189.918 99.6159 188.064 99.3685 187.309C99.2299 186.883 99.9499 183.482 100.91 179.061L100.823 179.08C100.272 179.189 97.1566 179.736 94.3733 178.856C93.3196 178.53 92.3842 177.985 91.6567 177.272Z" fill="#4E3535"/>
<path d="M100.928 179.057C100.928 179.057 101.629 178.852 101.423 178.588C101.218 178.325 99.3499 178.891 97.383 178.823C95.4161 178.755 92.4026 177.507 91.6134 176.44C90.8241 175.373 91.0319 176.658 91.4748 177.085C91.9177 177.513 93.6199 180.26 100.928 179.057Z" fill="white"/>
<path opacity="0.56" d="M91.5367 175.469C91.5986 176.063 91.6406 176.771 91.6753 177.548C91.8806 182.277 91.7198 189.645 92.8282 190.564C93.6669 191.261 97.2346 191.592 99.9215 191.646C98.6498 190.64 96.9526 189.063 96.3142 187.393C95.233 184.58 99.6518 167.298 100.025 161.154C100.399 155.01 103.902 130.31 103.902 130.31L102.418 127.987L101.676 127.87L95.5819 126.696L93.2538 126.027C88.9364 124.96 86.4153 121.549 86.4153 121.549C86.4153 121.549 90.3739 150.725 91.5466 154.208C92.7193 157.691 91.1087 171.272 91.5367 175.469Z" fill="#4E3535"/>
<path opacity="0.18" d="M140.413 43.9179C141.251 42.8281 142.145 42.238 142.496 42.5608C142.847 42.8836 142.629 43.3525 142.35 43.9035C142.508 43.6383 144.181 40.8027 144.067 39.0221C143.951 37.1715 145.997 34.2125 146.059 34.1221C145.982 34.2023 144.379 35.8945 143.985 37.2064C143.584 38.5471 142.939 40.2208 141.971 40.957C141.004 41.6931 140.447 43.7863 140.413 43.9179Z" fill="#4E3535"/>
<path opacity="0.18" d="M126.244 48.6062C126.492 48.5445 133.441 46.8296 134.79 43.918C136.163 40.9529 136.408 38.543 138.865 37.2702C141.151 36.0858 142.593 35.1893 142.781 35.0701C142.472 35.2243 139.137 36.8713 137.724 36.9351C136.24 37.0009 132.957 39.6082 132.907 41.356C132.853 41.9871 132.596 42.5948 132.165 43.1161C132.333 44.9605 131.066 46.696 126.244 48.6062Z" fill="#4E3535"/>
<path d="M139.156 46.1572C139.095 46.2522 139.058 46.3564 139.047 46.4636C139.089 46.3587 139.126 46.258 139.156 46.1572Z" fill="#4E3535"/>
<path opacity="0.18" d="M103.283 39.0283C103.447 39.3715 103.651 39.7007 103.892 40.0112C104.508 40.811 104.911 41.5759 104.975 42.3038C105.037 41.0701 105.451 37.8788 107.991 36.8631C111.178 35.5944 113.922 34.6567 113.922 34.6567C113.922 34.6567 105.042 34.9528 103.283 39.0283Z" fill="#4E3535"/>
<path opacity="0.18" d="M123.8 29.6231C127.437 26.3927 130.097 28.1261 130.604 25.4387C131.168 22.451 137.99 22.2412 137.99 22.2412C137.99 22.2412 141.085 22.599 141.325 21.4619C141.421 21.0095 141.146 20.7998 140.637 20.7607C140.637 20.7607 141.626 21.5257 139.417 21.6614C137.208 21.7971 131.144 22.7779 130.015 24.1165C128.887 25.4551 127.806 26.841 125.634 27.7334C124.652 28.1303 124.105 28.9034 123.8 29.6231Z" fill="#4E3535"/>
<path opacity="0.18" d="M141.845 34.4387C142.646 34.2884 143.432 34.0898 144.198 33.8445C148.283 32.5409 148.713 29.4771 148.928 27.645C149.144 25.8129 149.797 25.4572 149.797 25.4572C149.233 25.3194 148.461 26.1172 148.003 28.3626C147.3 31.8664 142.842 34.0008 141.845 34.4387Z" fill="#4E3535"/>
<path d="M117.187 81.5305C121.933 80.5373 128.699 77.3934 128.699 77.3934C128.582 77.1521 128.441 76.9196 128.276 76.6984C128.187 76.6305 126.195 75.148 123.974 76.3262C121.7 77.5332 121.806 78.6497 119.711 78.6497C117.615 78.6497 116.987 80.7512 117.187 81.5305Z" fill="url(#paint17_linear_1_10761)"/>
<path opacity="0.18" d="M101.467 80.9466L108.529 82.2194C108.757 82.2589 108.969 82.348 109.143 82.4777C109.317 82.6073 109.446 82.7729 109.518 82.9575C109.518 82.9575 110.043 81.2139 107.987 80.4119C105.931 79.61 103.313 79.4558 102.853 77.9774C102.727 77.6011 102.48 77.2606 102.138 76.9924C101.383 78.7135 101.467 80.9466 101.467 80.9466Z" fill="#4E3535"/>
<path opacity="0.18" d="M122.922 91.3304C120.851 95.3503 120.557 97.6307 121.737 99.2756C120.975 97.6965 121.339 95.9034 123.684 93.1296C126.685 89.5785 124.795 84.6209 120.221 83.7491C117.36 83.2042 116.885 82.4701 116.93 81.9951C116.781 82.4701 116.781 83.2412 117.774 84.0513C119.402 85.3673 124.993 87.3105 122.922 91.3304Z" fill="#4E3535"/>
<path opacity="0.18" d="M114.388 100.939C113.074 98.1489 115.625 97.9063 115.937 94.1352C116.254 90.2283 111.731 88.3078 111.587 88.2502C112.716 89.1879 114.403 90.3969 112.184 95.1653C110.543 98.6835 112.397 99.8926 114.388 100.939Z" fill="#4E3535"/>
<path d="M87.3411 85.427C87.4174 85.2941 87.5085 85.1674 87.6133 85.0487C88.8504 83.6093 90.7728 84.95 91.9875 83.5168C93.2023 82.0836 92.8807 81.2138 94.0905 81.2138C95.3004 81.2138 95.8224 80.782 96.0476 80.344C96.2727 79.906 99.7884 80.6154 99.7884 80.6154C99.7884 80.6154 100.669 78.1027 98.9918 77.2473C97.6409 76.5585 96.9853 76.6716 96.7651 75.9067C96.5251 75.8778 96.2825 75.8661 96.0401 75.8717C93.4374 75.9231 94.4864 77.5928 92.9549 78.7011C91.4234 79.8094 91.8762 82.353 88.9097 82.9575C86.8191 83.3831 87.0368 84.695 87.3411 85.427Z" fill="url(#paint18_linear_1_10761)"/>
<path opacity="0.18" d="M90.7018 77.2864C90.7018 77.2864 92.5549 76.3076 91.9908 75.1767C91.6836 74.4574 91.5003 73.7056 91.4465 72.9436C89.1357 74.2781 91.9215 76.1081 90.7018 77.2864Z" fill="#4E3535"/>
<path opacity="0.18" d="M88.208 92.6034C88.2278 93.2923 87.5895 93.6562 86.8423 93.9729C86.8423 93.9729 89.5787 93.3396 89.2546 91.197C88.9305 89.0544 84.0391 88.347 83.2227 85.0489C82.9797 84.2058 82.912 83.3344 83.0223 82.4724C82.4928 83.0194 82.0821 83.8501 81.951 85.1003C81.5972 88.4499 88.1561 90.8741 88.208 92.6034Z" fill="#4E3535"/>
<path opacity="0.18" d="M66.0942 76.9905C66.1758 76.9247 67.6182 75.7567 67.3584 73.3324C67.0888 70.8321 67.017 67.4907 73.6328 67.4187C70.2655 66.586 65.9631 66.7176 65.6389 70.1535C65.2604 74.303 66.9156 75.5737 66.0942 76.9905Z" fill="#4E3535"/>
<path opacity="0.18" d="M65.3978 88.2481C69.6706 90.6601 66.8477 93.3394 70.2347 94.68C73.1344 95.8274 74.317 96.619 74.75 97.8178C74.75 97.6636 74.5719 95.4161 71.979 93.5409C69.2946 91.5977 71.1205 89.0069 68.0575 86.9979C64.9946 84.989 63.8664 81.9067 65.0886 80.344C63.9344 80.6929 62.956 81.356 62.3126 82.2254C62.0034 84.4277 62.9039 86.8396 65.3978 88.2481Z" fill="#4E3535"/>
<path d="M135.448 64.4905C135.448 64.4905 141.349 63.7749 144.197 60.7893C147.045 57.8037 147.052 55.3074 146.055 54.5425C145.058 53.7776 144.571 56.4219 144.306 57.4006C144.041 58.3794 142.93 62.5247 135.448 64.4905Z" fill="#45695E"/>
<path d="M143.234 58.8585C143.234 58.8585 143.976 57.6124 143.823 56.831C143.669 56.0496 143.397 57.3615 143.234 57.8447C143.141 58.1782 143.141 58.525 143.234 58.8585Z" fill="#45695E"/>
<path d="M97.9963 109.004C98.2309 109.03 98.4694 109.015 98.6967 108.96C98.9241 108.906 99.1351 108.812 99.3165 108.686C99.4979 108.559 99.6455 108.403 99.7501 108.227C99.8546 108.05 99.9137 107.857 99.9237 107.661L100.468 100.853C100.502 100.44 100.348 100.033 100.037 99.7102C99.7257 99.3879 99.2798 99.1748 98.7881 99.1132C98.5536 99.0867 98.315 99.1012 98.0877 99.1559C97.8603 99.2105 97.6493 99.304 97.468 99.4305C97.2868 99.5569 97.1393 99.7135 97.0351 99.8901C96.931 100.067 96.8724 100.259 96.8632 100.456L96.3164 107.264C96.2823 107.676 96.4362 108.084 96.7474 108.407C97.0587 108.729 97.5046 108.942 97.9963 109.004Z" fill="white"/>
<path d="M135.354 140.594C135.354 140.594 131.123 142.422 127.961 142.734C124.799 143.047 123.243 143.092 123.35 144.03C123.456 144.967 123.887 149.787 124.532 149.993C125.178 150.198 131.41 149.522 133.882 148.629C136.354 147.737 137.16 147.11 137.098 146.709C137.036 146.308 135.96 140.594 135.96 140.594C135.96 140.594 135.75 140.238 135.354 140.594Z" stroke="white" stroke-miterlimit="10"/>
<path opacity="0.29" d="M138.867 116.452C140.5 116.402 142.343 115.639 143.949 114.377C144.006 114.253 145.104 111.794 146.346 110.46C147.588 109.125 147.336 106.121 147.321 106.024C146.168 108.872 142.937 114.609 135.601 114.508C135.601 114.508 134.394 116.585 138.867 116.452Z" fill="#4E3535"/>
<path d="M140.396 88.5835C140.396 88.5835 134.953 90.4197 132.446 90.4341C132.446 90.4341 132.293 91.4622 133.055 91.563C133.817 91.6637 138.976 90.5513 139.834 90.0743C140.693 89.5972 140.396 88.5835 140.396 88.5835Z" stroke="white" stroke-miterlimit="10"/>
<path d="M137.506 97.1721C137.057 97.1721 136.692 96.8692 136.692 96.4956C136.692 96.122 137.057 95.8191 137.506 95.8191C137.956 95.8191 138.32 96.122 138.32 96.4956C138.32 96.8692 137.956 97.1721 137.506 97.1721Z" stroke="white" stroke-miterlimit="10"/>
<path d="M138.92 100.277C138.471 100.277 138.106 99.9744 138.106 99.6008C138.106 99.2272 138.471 98.9243 138.92 98.9243C139.37 98.9243 139.734 99.2272 139.734 99.6008C139.734 99.9744 139.37 100.277 138.92 100.277Z" stroke="white" stroke-miterlimit="10"/>
<path d="M97.5806 111.136C97.131 111.136 96.7666 110.833 96.7666 110.46C96.7666 110.086 97.131 109.783 97.5806 109.783C98.0301 109.783 98.3945 110.086 98.3945 110.46C98.3945 110.833 98.0301 111.136 97.5806 111.136Z" stroke="white" stroke-miterlimit="10"/>
<path d="M85.6079 108.547C85.1583 108.547 84.7939 108.244 84.7939 107.871C84.7939 107.497 85.1583 107.194 85.6079 107.194C86.0574 107.194 86.4219 107.497 86.4219 107.871C86.4219 108.244 86.0574 108.547 85.6079 108.547Z" stroke="white" stroke-miterlimit="10"/>
<path opacity="0.25" d="M147.637 54.3988C147.637 54.3988 137.844 58.3961 133.339 64.2789C128.833 70.1618 128.541 65.5435 129.68 64.2789C130.818 63.0144 132.725 58.5626 137.426 55.7086C142.127 52.8546 146.857 51.4317 147.637 54.3988Z" fill="white"/>
<path opacity="0.25" d="M129.925 68.3194C129.925 68.3194 129.809 67.2728 128.688 67.2769C127.567 67.281 127.167 68.2022 127.595 68.6299C128.023 69.0576 130.202 69.4914 129.925 68.3194Z" fill="white"/>
<path d="M117.175 191.979C117.251 192.678 117.343 193.111 117.422 193.212C117.769 193.691 125.401 194.748 128.061 194.748C129.919 194.748 131.097 194.514 131.324 194.047C131.324 194.055 120.072 193.743 117.175 191.979Z" fill="#CEEBE9"/>
<path d="M92.2979 190.307C92.3561 190.452 92.4486 190.585 92.57 190.7C93.9308 191.835 102.11 192.024 103.248 191.738C103.558 191.662 103.436 191.372 103.087 190.973C103.087 190.973 97.068 191.611 92.2979 190.307Z" fill="#CEEBE9"/>
<path d="M81.9347 191.351H88.3674C88.3674 191.351 89.6589 189.135 88.3674 187.796C87.0759 186.458 86.0887 181.628 86.0887 181.628L83.7952 177.684C83.7952 177.684 80.1459 173.855 79.5002 173.051C78.8544 172.247 78.0553 175.588 74.7474 176.933C71.4395 178.278 69.668 182.142 69.668 182.142L81.9347 191.351Z" fill="url(#paint19_linear_1_10761)"/>
<path opacity="0.18" d="M131.243 34.258C132.48 33.5321 133.689 32.9276 134.355 31.3073C135.698 28.0482 138.276 28.4491 140.624 27.3326C141.173 27.0827 141.664 26.7541 142.074 26.3621C140.135 27.2133 136.846 27.9865 136.074 28.3155C135.025 28.7617 133.959 30.9043 133.415 32.1565C133.11 32.8782 132.074 33.6966 131.243 34.258Z" fill="#4E3535"/>
<path d="M165.209 19.7778C165.266 19.6915 166.941 17.0945 164.697 14.5242L164.066 15.0855C164.066 15.0855 166.11 16.749 165.209 19.7778Z" fill="url(#paint20_linear_1_10761)"/>
<path d="M151.802 8.03483C155.478 7.40151 157.403 9.16164 157.403 9.16164L158.078 8.67842C158.078 8.67842 155.159 6.88334 151.804 8.03277L151.802 8.03483Z" fill="url(#paint21_linear_1_10761)"/>
<path d="M138.166 66.9723C138.075 66.9723 138.001 66.9106 138.001 66.8345C138.001 66.7585 138.075 66.6968 138.166 66.6968C138.258 66.6968 138.332 66.7585 138.332 66.8345C138.332 66.9106 138.258 66.9723 138.166 66.9723Z" fill="white"/>
<path d="M0.0403442 191.352H81.9336C81.9336 183.816 77.4208 182.678 75.0061 180.593C74.3848 180.066 73.8171 179.496 73.3088 178.891C72.6307 178.084 72.1143 177.191 71.7798 176.247C71.4582 175.445 70.6516 175.042 70.6516 173.574C70.6516 172.105 69.041 172.235 69.4888 168.616C69.5515 168.075 69.5441 167.529 69.4665 166.989C69.0187 163.525 66.124 159.155 62.1085 156.2C57.4324 152.762 53.887 138.472 52.4347 134.184C50.9824 129.897 47.9219 131.639 46.7937 133.247C45.6655 134.855 40.507 142.893 35.1876 144.762C29.8683 146.631 26.8029 151.73 26.642 156.061C26.6156 156.539 26.5132 157.011 26.3377 157.467C25.5955 159.464 23.6533 161.814 21.5948 164.004C21.5937 164.009 21.5937 164.013 21.5948 164.018C19.4918 166.253 17.2775 168.322 16.127 169.671C15.9588 169.876 15.8128 170.049 15.6941 170.214C13.7593 172.887 10.5355 175.574 5.70113 177.982C0.866699 180.39 0.0403442 191.352 0.0403442 191.352Z" fill="url(#paint22_linear_1_10761)"/>
<path d="M164.781 194.757H135.448C135.448 194.757 134.194 192.682 136.19 191.646C138.187 190.609 138.575 182.277 140.555 181.085C142.534 179.892 144.308 177.69 144.308 177.69C144.308 177.69 142.754 171.844 148.447 178.011C154.14 184.177 154.442 187.393 156.226 188.331C158.01 189.269 161.397 188.397 162.04 190.307C162.683 192.217 164.781 194.757 164.781 194.757Z" fill="url(#paint23_linear_1_10761)"/>
<path d="M49.6733 131.489C49.6733 131.489 52.5828 139.302 52.2587 143.851C51.9346 148.399 53.3894 155.012 54.1935 156.599C54.9976 158.187 60.6608 160.274 62.2641 163.115C63.8673 165.957 61.6109 158.096 58.7088 155.462C55.8066 152.828 53.2137 133.732 49.6733 131.489Z" fill="url(#paint24_linear_1_10761)"/>
<path opacity="0.56" d="M62.7889 163.726C62.7889 163.726 66.2774 169.307 66.9108 171.449C67.5442 173.592 73.3633 179.355 73.3633 179.355C73.3633 179.355 73.3385 179.187 73.2915 178.889C72.6134 178.082 72.097 177.189 71.7625 176.244C71.4409 175.442 70.6343 175.039 70.6343 173.571C70.6343 172.103 69.0237 172.233 69.4715 168.614C69.5342 168.072 69.5268 167.527 69.4492 166.987C67.1582 165.447 62.7889 163.726 62.7889 163.726Z" fill="#4E3535"/>
<path opacity="0.4" d="M61.3366 191.352C61.3366 191.352 58.7561 175.739 56.9302 173.861C55.1043 171.984 52.5238 162.311 51.6652 160.496C50.8067 158.68 49.6092 156.538 49.6686 155.598C49.728 154.658 49.6686 152.871 49.6686 152.871C49.6686 152.871 52.5238 158.919 53.8128 159.657C55.1018 160.395 63.2713 166.013 63.9171 167.882C64.5628 169.751 67.6777 179.711 72.7299 182.148C77.782 184.585 81.56 187.975 81.56 187.975L81.9336 191.356L61.3366 191.352Z" fill="#4E3535"/>
<path opacity="0.4" d="M0.0404625 191.351H53.5977C53.5977 191.351 50.0522 176.185 49.0849 174.49C48.1175 172.796 47.4717 158.633 45.8685 156.601C44.2653 154.57 44.4706 148.407 44.9011 147.157C45.3316 145.907 47.588 141.934 47.588 140.437C47.588 138.94 48.3303 133.938 48.3303 133.938C48.3303 133.938 40.7001 143.624 37.5827 144.99C34.4653 146.355 28.9851 150.747 28.233 153.729C28.0524 154.448 27.372 155.797 26.3304 157.473C24.9135 159.731 23.3295 161.914 21.5875 164.01C21.5864 164.015 21.5864 164.019 21.5875 164.024C19.9479 166.026 18.1196 167.916 16.1197 169.677C15.9515 169.882 15.8055 170.055 15.6868 170.22C13.752 172.893 10.5282 175.58 5.69381 177.988C0.85939 180.396 0.0404625 191.351 0.0404625 191.351Z" fill="#4E3535"/>
<path opacity="0.56" d="M86.0895 120.866C86.1706 121.103 86.2766 121.334 86.4062 121.555C86.4631 121.966 90.3648 150.753 91.5376 154.21C92.7103 157.666 91.1095 171.277 91.5376 175.467C91.592 175.989 91.6316 176.6 91.6637 177.27C91.6637 177.361 91.6637 177.454 91.6761 177.546C91.8815 182.275 91.7206 189.643 92.829 190.562C93.6678 191.259 97.2354 191.59 99.9223 191.644C100.301 191.644 100.665 191.656 100.996 191.656C99.4028 190.953 94.2739 188.553 94.5485 186.842C94.6797 186.02 94.4718 182.775 94.3902 178.844C94.2739 173.127 94.4224 165.955 96.273 162.643C99.3953 157.056 102.181 142.779 98.3612 135.465C97.0078 132.868 96.2037 129.726 95.7287 126.751C95.5679 125.735 95.4442 124.742 95.3502 123.794C95.2883 123.159 95.2388 122.542 95.2017 121.958C95.1572 121.286 95.125 120.654 95.1052 120.075C95.1052 119.945 95.1052 119.817 95.0929 119.692C95.0929 119.281 95.0755 118.919 95.0731 118.582C95.0731 117.268 95.1003 116.468 95.1003 116.468L86.9753 113.875C86.9011 115.144 86.9307 114.697 86.9085 115.15C86.9085 115.355 86.8912 115.479 86.8912 115.479C86.4845 115.842 86.216 116.297 86.1192 116.787C86.1192 116.787 85.7927 117.992 86.0945 118.997C86.3963 120.003 85.7877 120.003 86.0895 120.866Z" fill="#4E3535"/>
<path opacity="0.56" d="M102.413 127.991L108.92 142.076C109.182 141.122 109.415 140.226 109.625 139.422L102.413 127.991Z" fill="#4E3535"/>
<path opacity="0.56" d="M120.233 157.878C120.555 160.469 119.157 171.277 117.974 178.78C117.957 178.889 117.94 178.998 117.925 179.105C117.893 179.31 117.866 179.504 117.836 179.703C116.846 186.787 117.341 192.552 117.653 192.98C117.9 193.334 122.401 194.023 125.488 194.292C124.251 194.127 119.815 193.013 119.959 185.522C120.024 183.721 120.2 181.923 120.486 180.137C121.834 170.972 125.09 158.341 122.198 152.771C118.675 145.997 110.307 133.066 110.379 131.493C110.451 129.92 105.386 128.324 105.386 128.324L102.417 127.995V128.014C102.937 128.809 119.914 155.322 120.233 157.878Z" fill="#4E3535"/>
<path opacity="0.56" d="M86.089 120.866C86.1701 121.103 86.2761 121.334 86.4057 121.555C87.1108 122.762 89.2064 125.051 95.7282 126.739C98.6152 127.457 101.574 127.959 104.568 128.24C104.843 128.269 105.115 128.295 105.387 128.318C115.531 129.256 123.448 127.985 127.961 126.716C122.498 126.8 123.188 125.688 119.96 124.75C116.731 123.813 112.146 124.489 107.995 124.197C103.843 123.905 95.6242 121.205 91.5914 119.674C90.0065 119.097 88.5707 118.271 87.3632 117.241C86.9723 116.911 86.6347 116.541 86.3587 116.139C86.2359 116.345 86.1525 116.565 86.1113 116.793C86.1113 116.793 85.7847 117.998 86.0865 119.003C86.3884 120.009 85.7871 120.003 86.089 120.866Z" fill="#4E3535"/>
<defs>
<linearGradient id="paint0_linear_1_10761" x1="153.986" y1="44.1319" x2="116.399" y2="77.9844" gradientUnits="userSpaceOnUse">
<stop offset="0.41" stop-color="#99D0B5"/>
<stop offset="1" stop-color="#45695E"/>
</linearGradient>
<linearGradient id="paint1_linear_1_10761" x1="-22274.8" y1="8886.9" x2="-30950.3" y2="8886.9" gradientUnits="userSpaceOnUse">
<stop stop-color="white"/>
<stop offset="0.38" stop-color="#99D0B5"/>
<stop offset="0.99" stop-color="#5F9D84"/>
</linearGradient>
<linearGradient id="paint2_linear_1_10761" x1="148.617" y1="55.7866" x2="125.698" y2="72.5536" gradientUnits="userSpaceOnUse">
<stop stop-color="#45695E"/>
<stop offset="0.87" stop-color="#1B232A"/>
</linearGradient>
<linearGradient id="paint3_linear_1_10761" x1="-1413.63" y1="1351.15" x2="-1475.55" y2="1361.46" gradientUnits="userSpaceOnUse">
<stop stop-color="#45695E"/>
<stop offset="0.87" stop-color="#1B232A"/>
</linearGradient>
<linearGradient id="paint4_linear_1_10761" x1="-13549.5" y1="16113.8" x2="-18523.6" y2="16113.8" gradientUnits="userSpaceOnUse">
<stop stop-color="white"/>
<stop offset="0.38" stop-color="#99D0B5"/>
<stop offset="0.99" stop-color="#5F9D84"/>
</linearGradient>
<linearGradient id="paint5_linear_1_10761" x1="-12615.4" y1="3786.68" x2="-15943.7" y2="3786.68" gradientUnits="userSpaceOnUse">
<stop stop-color="white"/>
<stop offset="0.38" stop-color="#99D0B5"/>
<stop offset="0.99" stop-color="#5F9D84"/>
</linearGradient>
<linearGradient id="paint6_linear_1_10761" x1="-28916" y1="21209.2" x2="-39569.5" y2="30544.1" gradientUnits="userSpaceOnUse">
<stop stop-color="white"/>
<stop offset="0.38" stop-color="#99D0B5"/>
<stop offset="0.99" stop-color="#5F9D84"/>
</linearGradient>
<linearGradient id="paint7_linear_1_10761" x1="-20124.7" y1="22319.8" x2="-28997.6" y2="25885.1" gradientUnits="userSpaceOnUse">
<stop stop-color="white"/>
<stop offset="0.38" stop-color="#99D0B5"/>
<stop offset="0.99" stop-color="#5F9D84"/>
</linearGradient>
<linearGradient id="paint8_linear_1_10761" x1="106.398" y1="75.4419" x2="104.881" y2="114.518" gradientUnits="userSpaceOnUse">
<stop stop-color="#F8BA67"/>
<stop offset="0.38" stop-color="#99D0B5"/>
<stop offset="0.99" stop-color="#518273"/>
</linearGradient>
<linearGradient id="paint9_linear_1_10761" x1="118.494" y1="77.2473" x2="118.494" y2="119.667" gradientUnits="userSpaceOnUse">
<stop stop-color="#F8BA67"/>
<stop offset="0.38" stop-color="#99D0B5"/>
<stop offset="0.99" stop-color="#6FC29F"/>
</linearGradient>
<linearGradient id="paint10_linear_1_10761" x1="-7368.75" y1="2881.48" x2="-8894.3" y2="4842.65" gradientUnits="userSpaceOnUse">
<stop stop-color="white"/>
<stop offset="0.38" stop-color="#99D0B5"/>
<stop offset="0.99" stop-color="#5F9D84"/>
</linearGradient>
<linearGradient id="paint11_linear_1_10761" x1="158.839" y1="13.5825" x2="149.578" y2="23.227" gradientUnits="userSpaceOnUse">
<stop stop-color="#EE7671"/>
<stop offset="1" stop-color="#1B232A" stop-opacity="0"/>
</linearGradient>
<linearGradient id="paint12_linear_1_10761" x1="131.556" y1="32.0823" x2="128.58" y2="51.1002" gradientUnits="userSpaceOnUse">
<stop stop-color="white"/>
<stop offset="1" stop-color="#B4E4F4"/>
</linearGradient>
<linearGradient id="paint13_linear_1_10761" x1="-19843" y1="17954.8" x2="-23563.1" y2="17541.1" gradientUnits="userSpaceOnUse">
<stop stop-color="white"/>
<stop offset="0.38" stop-color="#99D0B5"/>
<stop offset="0.99" stop-color="#5F9D84"/>
</linearGradient>
<linearGradient id="paint14_linear_1_10761" x1="-12343.8" y1="11086.8" x2="-13816" y2="10923.5" gradientUnits="userSpaceOnUse">
<stop stop-color="white"/>
<stop offset="0.38" stop-color="#99D0B5"/>
<stop offset="0.99" stop-color="#5F9D84"/>
</linearGradient>
<linearGradient id="paint15_linear_1_10761" x1="-13646.5" y1="23728.2" x2="-16655.4" y2="24477" gradientUnits="userSpaceOnUse">
<stop stop-color="white"/>
<stop offset="0.38" stop-color="#99D0B5"/>
<stop offset="0.99" stop-color="#5F9D84"/>
</linearGradient>
<linearGradient id="paint16_linear_1_10761" x1="-10867.7" y1="13937.9" x2="-13012.5" y2="14083.7" gradientUnits="userSpaceOnUse">
<stop stop-color="white"/>
<stop offset="0.38" stop-color="#99D0B5"/>
<stop offset="0.99" stop-color="#5F9D84"/>
</linearGradient>
<linearGradient id="paint17_linear_1_10761" x1="-5784.12" y1="3012.61" x2="-6163.1" y2="3299.58" gradientUnits="userSpaceOnUse">
<stop stop-color="white"/>
<stop offset="0.38" stop-color="#99D0B5"/>
<stop offset="0.99" stop-color="#5F9D84"/>
</linearGradient>
<linearGradient id="paint18_linear_1_10761" x1="-7749.56" y1="5148.54" x2="-8832.86" y2="5286.58" gradientUnits="userSpaceOnUse">
<stop stop-color="white"/>
<stop offset="0.38" stop-color="#99D0B5"/>
<stop offset="0.99" stop-color="#5F9D84"/>
</linearGradient>
<linearGradient id="paint19_linear_1_10761" x1="-13398.2" y1="17664.2" x2="-13361.4" y2="19654" gradientUnits="userSpaceOnUse">
<stop stop-color="white"/>
<stop offset="0.38" stop-color="#99D0B5"/>
<stop offset="0.99" stop-color="#5F9D84"/>
</linearGradient>
<linearGradient id="paint20_linear_1_10761" x1="-378.876" y1="938.59" x2="-657.071" y2="1035.93" gradientUnits="userSpaceOnUse">
<stop stop-color="#45695E"/>
<stop offset="0.87" stop-color="#1B232A"/>
</linearGradient>
<linearGradient id="paint21_linear_1_10761" x1="-2008.81" y1="211.552" x2="-2066.19" y2="455.07" gradientUnits="userSpaceOnUse">
<stop stop-color="#45695E"/>
<stop offset="0.87" stop-color="#1B232A"/>
</linearGradient>
<linearGradient id="paint22_linear_1_10761" x1="-69755.8" y1="46919.1" x2="-69755.8" y2="64345.2" gradientUnits="userSpaceOnUse">
<stop stop-color="white"/>
<stop offset="0.38" stop-color="#99D0B5"/>
<stop offset="0.99" stop-color="#5F9D84"/>
</linearGradient>
<linearGradient id="paint23_linear_1_10761" x1="-12297.7" y1="18768.9" x2="-12203.5" y2="21632.3" gradientUnits="userSpaceOnUse">
<stop stop-color="white"/>
<stop offset="0.38" stop-color="#99D0B5"/>
<stop offset="0.99" stop-color="#5F9D84"/>
</linearGradient>
<linearGradient id="paint24_linear_1_10761" x1="-10541.6" y1="24930.4" x2="-7816.92" y2="31556.2" gradientUnits="userSpaceOnUse">
<stop stop-color="white"/>
<stop offset="0.38" stop-color="#99D0B5"/>
<stop offset="0.99" stop-color="#5F9D84"/>
</linearGradient>
</defs>
</svg>
